<?xml version="1.0" encoding="UTF-8"?>
<svg version="1.1" xmlns="http://www.w3.org/2000/svg" width="500" height="500">
<path d="M0 0 C0.81984375 0.69738281 1.6396875 1.39476562 2.484375 2.11328125 C13.57538509 11.80930405 22.33751621 22.49382365 30 35 C30.35835938 35.57669434 30.71671875 36.15338867 31.0859375 36.74755859 C48.5318256 65.31847966 54.17634655 102.80152985 46.76635742 135.40283203 C46.21459718 137.61409028 45.62075652 139.80720438 45 142 C44.81808105 142.66306152 44.63616211 143.32612305 44.44873047 144.00927734 C38.38272359 165.54658327 27.1175229 183.68589807 12.37109375 200.26953125 C10.02518831 202.74230496 10.02518831 202.74230496 9 205 C13.62 205.33 18.24 205.66 23 206 C22.67 207.32 22.34 208.64 22 210 C20.2984375 210.29003906 20.2984375 210.29003906 18.5625 210.5859375 C17.04163968 210.84880225 15.52080786 211.11183192 14 211.375 C13.25621094 211.50132812 12.51242187 211.62765625 11.74609375 211.7578125 C9.49264107 212.14971731 7.24606144 212.56782833 5 213 C4.30575928 213.12785889 3.61151855 213.25571777 2.89624023 213.38745117 C-2.20686854 214.46836282 -5.75345839 216.51135922 -9.9375 219.5625 C-40.19115539 240.52409775 -77.02350131 248.92673327 -113.5625 242.9375 C-151.89966051 235.76616408 -184.18570293 212.79093994 -206.12109375 180.91796875 C-215.45334377 166.45570994 -221.49959276 150.81994035 -225 134 C-225.18618896 133.11304443 -225.37237793 132.22608887 -225.56420898 131.31225586 C-227.14004814 122.98322073 -227.36006196 114.77045629 -227.3125 106.3125 C-227.31001251 105.60523773 -227.30752502 104.89797546 -227.30496216 104.16928101 C-227.24711917 93.53172922 -226.92900626 83.29751458 -224 73 C-223.76893555 72.18563477 -223.53787109 71.37126953 -223.29980469 70.53222656 C-213.29732259 36.39797005 -193.13527154 9.41543261 -164 -11 C-163.14921875 -11.59683594 -162.2984375 -12.19367188 -161.421875 -12.80859375 C-147.78967247 -21.60279433 -131.72795594 -26.58564226 -116 -30 C-114.89269531 -30.24621094 -113.78539062 -30.49242188 -112.64453125 -30.74609375 C-72.49125064 -37.97867224 -30.76930192 -26.33729982 0 0 Z M-179 14 C-179.80824219 14.73347656 -180.61648437 15.46695313 -181.44921875 16.22265625 C-195.5433171 29.47597637 -205.10231417 46.8879694 -211.3125 65.0625 C-211.54300049 65.7332959 -211.77350098 66.4040918 -212.01098633 67.09521484 C-216.02983512 79.57829346 -217.58721646 91.94072535 -217.5 105 C-217.49823761 105.71278107 -217.49647522 106.42556213 -217.49465942 107.15994263 C-217.29367828 143.89039698 -202.37553682 175.29016375 -176.53979492 200.94799805 C-160.94004403 215.84469715 -141.58230598 225.17134054 -121 231 C-119.82179688 231.34160156 -118.64359375 231.68320312 -117.4296875 232.03515625 C-99.08513588 236.36930856 -75.08128195 236.24238481 -57 231 C-56.29842773 230.80132324 -55.59685547 230.60264648 -54.87402344 230.39794922 C-40.12775019 226.13869461 -25.59446327 220.30618957 -14 210 C-16.82247676 206.96698884 -19.61847165 204.89829579 -23.1875 202.8125 C-46.63541011 188.08360029 -57.60339581 158.80785057 -66.06152344 133.77392578 C-67.33744305 130.0025942 -68.66398258 126.25035601 -70 122.5 C-70.37125 121.4378125 -70.7425 120.375625 -71.125 119.28125 C-71.79646418 117.06787667 -71.79646418 117.06787667 -73 116 C-74.71865409 115.9064081 -76.44115744 115.88255389 -78.16235352 115.88647461 C-79.81395226 115.88658791 -79.81395226 115.88658791 -81.49891663 115.88670349 C-83.29576149 115.89444542 -83.29576149 115.89444542 -85.12890625 115.90234375 C-86.34827377 115.9037587 -87.5676413 115.90517365 -88.82395935 115.90663147 C-92.7368307 115.91225033 -96.64964581 115.92480604 -100.5625 115.9375 C-103.20768147 115.94251257 -105.85286383 115.9470759 -108.49804688 115.95117188 C-114.99871726 115.96222589 -121.49935461 115.97898236 -128 116 C-131.67447488 124.00257612 -135.11463176 132.04450699 -138.3125 140.25 C-138.76689453 141.38179687 -139.22128906 142.51359375 -139.68945312 143.6796875 C-142.84902822 151.62068455 -142.84902822 151.62068455 -143 160 C-141.52006844 162.56338689 -141.52006844 162.56338689 -139 164 C-135.832168 164.33448259 -135.832168 164.33448259 -133 164 C-133 165.32 -133 166.64 -133 168 C-146.86 167.67 -160.72 167.34 -175 167 C-175 166.34 -175 165.68 -175 165 C-174.14728516 164.87044922 -174.14728516 164.87044922 -173.27734375 164.73828125 C-172.50519531 164.59777344 -171.73304688 164.45726562 -170.9375 164.3125 C-169.80634766 164.12107422 -169.80634766 164.12107422 -168.65234375 163.92578125 C-162.85681355 161.90289368 -158.72826589 158.52569026 -155.99221802 152.95744324 C-155.70345795 152.31793228 -155.41469788 151.67842133 -155.1171875 151.01953125 C-154.78854706 150.32761185 -154.45990662 149.63569244 -154.12130737 148.92280579 C-150.2328044 140.60344304 -146.76089731 132.09506595 -143.30438232 123.58959961 C-141.67350121 119.57649941 -140.02918651 115.56894617 -138.38552856 111.56106567 C-137.53289817 109.48196224 -136.68091114 107.40259485 -135.82955933 105.32296753 C-131.78176168 95.4425295 -127.66152063 85.59314872 -123.52679443 75.74884033 C-122.38666323 73.02783513 -121.25306904 70.30419967 -120.12158203 67.57958984 C-117.06908891 60.238813 -114.00401399 52.92235415 -110.6640625 45.70703125 C-110.20209473 44.68158203 -109.74012695 43.65613281 -109.26416016 42.59960938 C-108.46105138 40.82898563 -107.62787517 39.07146208 -106.75537109 37.33398438 C-105.75395445 35.0908889 -105.09600787 33.45488849 -105 31 C-107.30146328 25.83564282 -111.27540086 22.25082712 -116.1875 19.5625 C-117.02667969 19.08941406 -117.86585938 18.61632812 -118.73046875 18.12890625 C-123.23583883 15.88785298 -127.26123288 15.81673583 -132.1875 15.8125 C-132.91775391 15.80025391 -133.64800781 15.78800781 -134.40039062 15.77539062 C-139.58254359 15.76162051 -144.01738301 16.57236455 -149 18 C-148.67 17.01 -148.34 16.02 -148 15 C-135.97115342 9.89258344 -122.423684 8.20459895 -110.03125 12.65625 C-93.28521987 20.07974789 -85.94858503 35.51497006 -79.52661133 51.71728516 C-78.06195498 55.65279121 -76.6475241 59.60282949 -75.25 63.5625 C-74.70857776 65.07710816 -74.16656333 66.59150472 -73.62402344 68.10571289 C-70.53609757 76.74700958 -67.504791 85.40795214 -64.48516846 94.07331848 C-63.2402631 97.645124 -61.99284577 101.21604508 -60.74511719 104.78686523 C-59.11669443 109.44728208 -57.49894549 114.11120993 -55.88769531 118.77758789 C-40.14501358 166.74842931 -40.14501358 166.74842931 -6 202 C0.06979581 201.53406132 4.20252981 195.24624964 8 191 C28.22611467 167.34625368 39.45754555 138.04943276 39.3125 106.875 C39.30686035 105.60035889 39.3012207 104.32571777 39.29541016 103.01245117 C39.16822946 93.07787584 38.47954773 83.63050857 36 74 C35.81727539 73.2894043 35.63455078 72.57880859 35.44628906 71.84667969 C26.6681937 39.40087894 4.98442478 11.41458719 -24.125 -5.3125 C-29.93392519 -8.55394885 -35.85870001 -11.44573559 -42 -14 C-42.77601563 -14.34675781 -43.55203125 -14.69351563 -44.3515625 -15.05078125 C-90.31431173 -33.94657816 -144.21524656 -19.28491332 -179 14 Z M-100 42 C-100.22470978 42.58056656 -100.44941956 43.16113312 -100.68093872 43.7592926 C-103.04898307 49.8769458 -105.41821138 55.99413956 -107.78808594 62.11108398 C-108.66891514 64.38505814 -109.5494561 66.65914398 -110.4296875 68.93334961 C-111.70494496 72.22800625 -112.98113434 75.52229989 -114.2578125 78.81640625 C-114.67009094 79.8808194 -115.08236938 80.94523254 -115.50714111 82.04190063 C-118.28332611 89.19491936 -121.12078808 96.31972198 -124.03466797 103.41772461 C-125.11672082 105.852761 -125.11672082 105.852761 -125 108 C-108.83 108 -92.66 108 -76 108 C-77.61206113 100.62150829 -77.61206113 100.62150829 -79.73999023 93.49951172 C-80.2357682 92.03286575 -80.2357682 92.03286575 -80.74156189 90.53659058 C-81.0936824 89.51131256 -81.44580292 88.48603455 -81.80859375 87.4296875 C-82.35967552 85.80898849 -82.35967552 85.80898849 -82.92189026 84.1555481 C-83.6954134 81.88401194 -84.47124503 79.61326072 -85.24926758 77.34326172 C-86.43561004 73.8805165 -87.61387269 70.41510071 -88.79101562 66.94921875 C-89.54639933 64.73421273 -90.30224312 62.51936354 -91.05859375 60.3046875 C-91.40869003 59.27536102 -91.75878632 58.24603455 -92.11949158 57.18551636 C-93.89248188 52.02357676 -95.76499611 46.98011966 -98 42 C-98.66 42 -99.32 42 -100 42 Z " fill="#15C0DA" transform="translate(339,144)"/>
<path d="M0 0 C11.57470002 10.29969003 17.16793754 24.70707849 22.4375 38.90625 C23.01831833 40.46361626 23.01831833 40.46361626 23.61087036 42.05244446 C27.69653496 53.06944651 31.57528657 64.15767557 35.43994141 75.25369263 C54.10722302 137.9701092 54.10722302 137.9701092 96.16015625 185.41796875 C104.0263338 189.06061404 113.78467438 188.18404174 122.26953125 188.01953125 C121.93953125 189.33953125 121.60953125 190.65953125 121.26953125 192.01953125 C118.60428485 192.52835102 115.93774706 193.02673266 113.26953125 193.51953125 C112.52574219 193.66261719 111.78195312 193.80570313 111.015625 193.953125 C106.0173311 194.86585693 101.35032809 195.15809844 96.26953125 195.01953125 C95.93953125 194.35953125 95.60953125 193.69953125 95.26953125 193.01953125 C94.03203125 192.97828125 92.79453125 192.93703125 91.51953125 192.89453125 C78.50587779 191.69454413 66.78894859 179.28124677 58.70703125 169.95703125 C46.01215674 153.90372433 38.41578118 134.25078177 31.83203125 115.08203125 C29.99640625 109.78140625 28.16078125 104.48078125 26.26953125 99.01953125 C8.11953125 99.01953125 -10.03046875 99.01953125 -28.73046875 99.01953125 C-31.04046875 104.81515625 -33.35046875 110.61078125 -35.73046875 116.58203125 C-36.82681641 119.3056189 -36.82681641 119.3056189 -37.9453125 122.08422852 C-38.52047651 123.54275911 -39.09475409 125.0016397 -39.66796875 126.4609375 C-39.97025391 127.20243042 -40.27253906 127.94392334 -40.58398438 128.70788574 C-42.37203191 133.30040068 -43.15601149 137.00789217 -42.73046875 142.01953125 C-41.73046875 144.01953125 -41.73046875 144.01953125 -39.73046875 145.01953125 C-36.62207854 145.74645385 -36.62207854 145.74645385 -33.73046875 146.01953125 C-33.73046875 147.33953125 -33.73046875 148.65953125 -33.73046875 150.01953125 C-47.59046875 150.01953125 -61.45046875 150.01953125 -75.73046875 150.01953125 C-75.73046875 148.69953125 -75.73046875 147.37953125 -75.73046875 146.01953125 C-75.15039062 145.9215625 -74.5703125 145.82359375 -73.97265625 145.72265625 C-72.80089844 145.49835938 -72.80089844 145.49835938 -71.60546875 145.26953125 C-70.45691406 145.06070313 -70.45691406 145.06070313 -69.28515625 144.84765625 C-64.52667419 143.30515136 -61.42440936 141.09660409 -58.70654297 136.87817383 C-58.08901579 135.6283854 -57.49129031 134.36868291 -56.91015625 133.1015625 C-56.57700409 132.40513138 -56.24385193 131.70870026 -55.90060425 130.99116516 C-51.9800784 122.66145781 -48.49992131 114.13564914 -45.03485107 105.60913086 C-43.40396996 101.59603066 -41.75965526 97.58847742 -40.11599731 93.58059692 C-39.26336692 91.50149349 -38.41137989 89.4221261 -37.56002808 87.34249878 C-33.51221409 77.46202085 -29.3921508 67.61250095 -25.25753784 57.76809692 C-24.11725302 55.04764574 -22.982623 52.32490648 -21.84985352 49.60131836 C-18.79246768 42.25792145 -15.7230782 34.93255802 -12.4296875 27.69140625 C-11.97223145 26.66144531 -11.51477539 25.63148438 -11.04345703 24.5703125 C-10.24826931 22.78929072 -9.42763267 21.01925356 -8.57373047 19.265625 C-6.74821758 15.23758461 -6.74821758 15.23758461 -7.48339844 11.05029297 C-9.96270957 7.30388725 -12.91887258 4.82350344 -16.85546875 2.64453125 C-17.70367187 2.16242188 -18.551875 1.6803125 -19.42578125 1.18359375 C-23.95350351 -1.1032897 -27.95854834 -1.13105475 -32.91796875 -1.10546875 C-33.64822266 -1.10933594 -34.37847656 -1.11320313 -35.13085938 -1.1171875 C-40.07917075 -1.10842167 -44.8316705 -0.67950451 -49.73046875 0.01953125 C-49.40046875 -1.30046875 -49.07046875 -2.62046875 -48.73046875 -3.98046875 C-46.54473313 -4.63224844 -44.35678645 -5.27661549 -42.16796875 -5.91796875 C-40.94980469 -6.27761719 -39.73164063 -6.63726562 -38.4765625 -7.0078125 C-24.53906747 -10.62661986 -11.60996038 -8.90909722 0 0 Z M-0.73046875 24.01953125 C-0.95517853 24.60009781 -1.17988831 25.18066437 -1.41140747 25.77882385 C-3.77945182 31.89647705 -6.14868013 38.01367081 -8.51855469 44.13061523 C-9.39938389 46.40458939 -10.27992485 48.67867523 -11.16015625 50.95288086 C-12.43541371 54.2475375 -13.71160309 57.54183114 -14.98828125 60.8359375 C-15.40055969 61.90035065 -15.81283813 62.96476379 -16.23760986 64.06143188 C-19.01379486 71.21445061 -21.85125683 78.33925323 -24.76513672 85.43725586 C-25.84718957 87.87229225 -25.84718957 87.87229225 -25.73046875 90.01953125 C-9.56046875 90.01953125 6.60953125 90.01953125 23.26953125 90.01953125 C21.65747012 82.64103954 21.65747012 82.64103954 19.52954102 75.51904297 C19.03376305 74.052397 19.03376305 74.052397 18.52796936 72.55612183 C18.17584885 71.53084381 17.82372833 70.5055658 17.4609375 69.44921875 C16.90985573 67.82851974 16.90985573 67.82851974 16.34764099 66.17507935 C15.57411785 63.90354319 14.79828622 61.63279197 14.02026367 59.36279297 C12.83392121 55.90004775 11.65565856 52.43463196 10.47851562 48.96875 C9.72313192 46.75374398 8.96728813 44.53889479 8.2109375 42.32421875 C7.86084122 41.29489227 7.51074493 40.2655658 7.15003967 39.20504761 C5.37704937 34.04310801 3.50453514 28.99965091 1.26953125 24.01953125 C0.60953125 24.01953125 -0.05046875 24.01953125 -0.73046875 24.01953125 Z " fill="#3DB5F8" transform="translate(239.73046875,161.98046875)"/>
<path d="M0 0 C30.95083829 -1.49762121 61.89341372 12.22168028 85 32 C85.81984375 32.69738281 86.6396875 33.39476562 87.484375 34.11328125 C98.57538509 43.80930405 107.33751621 54.49382365 115 67 C115.35835938 67.57669434 115.71671875 68.15338867 116.0859375 68.74755859 C133.5318256 97.31847966 139.17634655 134.80152985 131.76635742 167.40283203 C131.21459718 169.61409028 130.62075652 171.80720438 130 174 C129.72712158 174.99459229 129.72712158 174.99459229 129.44873047 176.00927734 C123.39908702 197.48848505 112.17183614 215.62478089 97.46875 232.171875 C94.95188307 234.93211141 94.95188307 234.93211141 93 238 C89.18115682 238.42431591 86.87594552 238.5390434 83.5625 236.5 C82.7890625 235.7575 82.7890625 235.7575 82 235 C83.38569656 231.83368336 84.96682773 229.89322613 87.5 227.5625 C108.78101496 206.66631352 122.49694204 175.90921806 123.30078125 146.1171875 C123.3202662 143.70320048 123.32373182 141.28903953 123.3125 138.875 C123.30686035 137.60035889 123.3012207 136.32571777 123.29541016 135.01245117 C123.16822946 125.07787584 122.47954773 115.63050857 120 106 C119.81727539 105.2894043 119.63455078 104.57880859 119.44628906 103.84667969 C110.9778975 72.54561335 90.57962536 45.27120118 62.66064453 28.71264648 C56.29649394 25.05895927 49.77622922 21.81834158 43 19 C42.22398437 18.65324219 41.44796875 18.30648437 40.6484375 17.94921875 C30.92561796 13.95205961 20.31650261 12.69825714 10 11 C10 10.34 10 9.68 10 9 C10.99 8.67 11.98 8.34 13 8 C13.73323796 5.98491642 13.73323796 5.98491642 14 4 C12.68 4 11.36 4 10 4 C9.34 3.34 8.68 2.68 8 2 C5.34462628 1.43479997 2.70855287 1.26211802 0 1 C0 0.67 0 0.34 0 0 Z " fill="#F1DC6E" transform="translate(254,112)"/>
<path d="M0 0 C0.99 0.99 0.99 0.99 2 2 C4.06874034 2.6425235 4.06874034 2.6425235 6 3 C5.1875 5.4375 5.1875 5.4375 4 8 C0.77635765 9.07454745 -1.64813135 9.15635007 -5.0390625 9.2109375 C-43.17687158 10.02982418 -74.99126264 19.13060111 -103 46 C-103.78117187 46.72960937 -104.56234375 47.45921875 -105.3671875 48.2109375 C-110.70596224 53.33400417 -114.97369193 58.7987088 -119 65 C-119.33 63.68 -119.66 62.36 -120 61 C-119.34 61 -118.68 61 -118 61 C-117.814375 59.3603125 -117.814375 59.3603125 -117.625 57.6875 C-117 54 -117 54 -115 51 C-112.375 50.3125 -112.375 50.3125 -110 50 C-109.67 49.01 -109.34 48.02 -109 47 C-109.33 46.34 -109.66 45.68 -110 45 C-110.66 45.66 -111.32 46.32 -112 47 C-112.99 47 -113.98 47 -115 47 C-115.33 47.99 -115.66 48.98 -116 50 C-119.0625 51.6875 -119.0625 51.6875 -122 53 C-120.47404619 49.48788408 -118.38926078 47.00375318 -115.8125 44.1875 C-114.70841797 42.97126953 -114.70841797 42.97126953 -113.58203125 41.73046875 C-108.10090508 35.93424002 -102.62214414 30.67299957 -96.1875 25.9375 C-95.47956299 25.41510742 -94.77162598 24.89271484 -94.04223633 24.35449219 C-67.89744022 5.24120885 -32.42922085 -5.68933699 0 0 Z " fill="#3AC1C4" transform="translate(263,113)"/>
<path d="M0 0 C0.33 0.99 0.66 1.98 1 3 C1.99 3.495 1.99 3.495 3 4 C-31.9919666 27.43016537 -69.51769898 40.34862578 -112.16894531 32.35522461 C-118.57371801 31.01481714 -124.82313212 29.14989925 -131 27 C-130.34 26.34 -129.68 25.68 -129 25 C-125.875 25.375 -125.875 25.375 -123 26 C-123.99 25.01 -124.98 24.02 -126 23 C-125.67 22.01 -125.34 21.02 -125 20 C-125.66 19.34 -126.32 18.68 -127 18 C-126.195625 18.16435547 -126.195625 18.16435547 -125.375 18.33203125 C-123.63998489 18.68302937 -121.90264671 19.02259932 -120.1640625 19.35546875 C-118.06380748 19.78329848 -115.97376967 20.26495871 -113.8984375 20.80078125 C-95.1756407 25.18050423 -71.48363503 25.35904079 -53 20 C-51.9476416 19.70198486 -51.9476416 19.70198486 -50.87402344 19.39794922 C-37.96828366 15.67030694 -24.34167699 10.9195873 -14.125 1.9375 C-9.55936913 -1.96580531 -5.6089276 -1.39344965 0 0 Z " fill="#8DCD9A" transform="translate(335,354)"/>
<path d="M0 0 C1.69717174 3.39434347 2.762817 6.32391043 3.8125 9.9375 C13.62884537 42.07349197 34.43354069 69.32424347 64.29296875 85.35546875 C70.72813702 88.68304004 77.18802274 91.52839763 84 94 C84 94.66 84 95.32 84 96 C85.485 96.495 85.485 96.495 87 97 C87 98.32 87 99.64 87 101 C87.99 102.485 87.99 102.485 89 104 C87.4375 103.77213542 85.875 103.54427083 84.3125 103.31640625 C82.29585965 103.0404808 80.2668961 102.85782429 78.23828125 102.69140625 C73.72734671 102.12532205 70.17419688 100.48829345 66.1875 98.375 C65.14166748 97.8332312 65.14166748 97.8332312 64.07470703 97.28051758 C35.38483362 82.20791519 12.18607493 59.0625737 -1.0625 29.3125 C-1.52982544 28.26872192 -1.52982544 28.26872192 -2.0065918 27.20385742 C-2.73733636 25.49609996 -3.37725091 23.75003049 -4 22 C-3.67 21.34 -3.34 20.68 -3 20 C-2.34 20.33 -1.68 20.66 -1 21 C-1 22.65 -1 24.3 -1 26 C-0.01 26 0.98 26 2 26 C2 25.34 2 24.68 2 24 C2.66 23.67 3.32 23.34 4 23 C4 21.68 4 20.36 4 19 C2.68 18.34 1.36 17.68 0 17 C0 11.39 0 5.78 0 0 Z " fill="#2CBECF" transform="translate(124,277)"/>
<path d="M0 0 C30.77147822 -1.48894249 62.12467658 12.10841442 85 32 C86.735032 33.62093692 88.37535783 35.26704835 90 37 C87.125 36.75 87.125 36.75 84 36 C82.625 33.9375 82.625 33.9375 82 32 C81.01 32.495 81.01 32.495 80 33 C80.33 33.99 80.66 34.98 81 36 C80.01 36.495 80.01 36.495 79 37 C80.32 37 81.64 37 83 37 C83 38.32 83 39.64 83 41 C84.485 41.495 84.485 41.495 86 42 C90 46.45714286 90 46.45714286 90 49 C90.66 49 91.32 49 92 49 C91.67 49.99 91.34 50.98 91 52 C90.42894531 51.39414063 89.85789062 50.78828125 89.26953125 50.1640625 C75.93195511 36.38119367 60.72334924 26.37142303 43 19 C42.22398437 18.65324219 41.44796875 18.30648437 40.6484375 17.94921875 C30.92561796 13.95205961 20.31650261 12.69825714 10 11 C10 10.34 10 9.68 10 9 C10.99 8.67 11.98 8.34 13 8 C13.73323796 5.98491642 13.73323796 5.98491642 14 4 C12.68 4 11.36 4 10 4 C9.34 3.34 8.68 2.68 8 2 C5.34462628 1.43479997 2.70855287 1.26211802 0 1 C0 0.67 0 0.34 0 0 Z " fill="#AED28D" transform="translate(254,112)"/>
<path d="M0 0 C0.33 0 0.66 0 1 0 C1.09023088 5.16321166 1.07492001 9.93251998 0 15 C0.495 16.485 0.495 16.485 1 18 C1.66 17.34 2.32 16.68 3 16 C3.66 16 4.32 16 5 16 C5.66 12.7 6.32 9.4 7 6 C7.66 6 8.32 6 9 6 C7.48520944 30.74157921 -8.61430852 54.2586882 -24.53125 72.171875 C-27.04811693 74.93211141 -27.04811693 74.93211141 -29 78 C-32.81884318 78.42431591 -35.12405448 78.5390434 -38.4375 76.5 C-38.953125 76.005 -39.46875 75.51 -40 75 C-38.61430344 71.83368336 -37.03317227 69.89322613 -34.5 67.5625 C-16.06533466 49.46119208 -4.80287237 25.15563847 0 0 Z " fill="#F4DD69" transform="translate(376,272)"/>
<path d="M0 0 C0.66 0.99 1.32 1.98 2 3 C1 5 1 5 -2 7 C-2.99 7 -3.98 7 -5 7 C-5.309375 8.27875 -5.61875 9.5575 -5.9375 10.875 C-6.47605244 13.10101675 -6.9737 14.94739999 -8 17 C-8.66 17 -9.32 17 -10 17 C-10.020625 17.9075 -10.04125 18.815 -10.0625 19.75 C-10.59694926 23.56749471 -12.18344209 26.23347389 -14.1875 29.5 C-23.65539737 45.12493492 -30.1167304 65.09655631 -30.1328125 83.453125 C-30.13424759 84.50351959 -30.13424759 84.50351959 -30.13571167 85.57513428 C-30.13638895 87.05090424 -30.13456636 88.52667725 -30.13037109 90.00244141 C-30.12504884 92.22956256 -30.13031475 94.45647906 -30.13671875 96.68359375 C-30.13986319 104.18119832 -29.927725 111.5487484 -29 119 C-29.33 118.01 -29.66 117.02 -30 116 C-30.66 116 -31.32 116 -32 116 C-32.02527002 109.46721214 -32.04283292 102.93443679 -32.05493164 96.40161133 C-32.05997317 94.17732268 -32.06680623 91.95303737 -32.07543945 89.72875977 C-32.08751298 86.53921691 -32.09322996 83.34971771 -32.09765625 80.16015625 C-32.10281754 79.15912369 -32.10797882 78.15809113 -32.11329651 77.12672424 C-32.11337204 76.20584518 -32.11344757 75.28496613 -32.11352539 74.33618164 C-32.115746 73.52121719 -32.11796661 72.70625275 -32.12025452 71.86659241 C-32 70 -32 70 -31 69 C-30.92677138 66.70940887 -30.91641106 64.41666433 -30.9375 62.125 C-30.95103516 60.24167969 -30.95103516 60.24167969 -30.96484375 58.3203125 C-30.97644531 57.22460938 -30.98804687 56.12890625 -31 55 C-31 54.01 -31 53.02 -31 52 C-30.01 51.505 -30.01 51.505 -29 51 C-28.34 51.33 -27.68 51.66 -27 52 C-27.33 50.68 -27.66 49.36 -28 48 C-28.433125 48.495 -28.86625 48.99 -29.3125 49.5 C-31 51 -31 51 -34 51 C-33.95875 51.845625 -33.9175 52.69125 -33.875 53.5625 C-34.01535028 57.42213269 -34.82780164 60.33688013 -36 64 C-36.66 64 -37.32 64 -38 64 C-37.44925424 58.32795171 -36.37713053 53.35026875 -34.4375 48 C-34.17428955 47.26942383 -33.9110791 46.53884766 -33.63989258 45.78613281 C-28.25756989 31.28986841 -20.76819501 13.15893038 -7 5 C-5.67948508 4.07382353 -4.36682649 3.13633871 -3.0625 2.1875 C-2.051875 1.465625 -1.04125 0.74375 0 0 Z " fill="#2CBDCD" transform="translate(153,157)"/>
<path d="M0 0 C0.495 1.485 0.495 1.485 1 3 C1.66 3.33 2.32 3.66 3 4 C-16.14403029 16.8185935 -34.50608771 26.55996497 -57 32 C-57 30.68 -57 29.36 -57 28 C-56.01 28 -55.02 28 -54 28 C-54.020625 27.236875 -54.04125 26.47375 -54.0625 25.6875 C-54 23 -54 23 -53 20 C-50.31008288 18.97426108 -47.69338487 18.1179796 -44.9375 17.3125 C-33.8959783 13.85119755 -22.91112885 9.6619075 -14.125 1.9375 C-9.55936913 -1.96580531 -5.6089276 -1.39344965 0 0 Z " fill="#B8D188" transform="translate(335,354)"/>
<path d="M0 0 C1.65 0 3.3 0 5 0 C7.09149986 9.50951072 7.2793097 18.75878733 7.20581055 28.4387207 C7.18735494 30.95729546 7.18530289 33.4755047 7.18554688 35.99414062 C7.18063703 37.60937817 7.17481106 39.22461324 7.16796875 40.83984375 C7.16685593 41.5857225 7.1657431 42.33160126 7.16459656 43.1000824 C7.13046204 46.8542063 6.89801709 50.34925822 6 54 C5.01 54 4.02 54 3 54 C2.92652344 55.03060547 2.92652344 55.03060547 2.8515625 56.08203125 C2.77679688 56.98308594 2.70203125 57.88414062 2.625 58.8125 C2.55539062 59.70582031 2.48578125 60.59914063 2.4140625 61.51953125 C2 64 2 64 0 67 C-0.33 66.34 -0.66 65.68 -1 65 C-2.485 65.99 -2.485 65.99 -4 67 C-4.87890625 60.84765625 -4.87890625 60.84765625 -5 59 C-4.505 58.505 -4.505 58.505 -4 58 C-3.76712992 56.31816052 -3.58735834 54.6287584 -3.4375 52.9375 C-3.35371094 52.01839844 -3.26992188 51.09929687 -3.18359375 50.15234375 C-3.12300781 49.44207031 -3.06242187 48.73179687 -3 48 C-2.34 48 -1.68 48 -1 48 C-1.00222061 47.42814972 -1.00444122 46.85629944 -1.00672913 46.26712036 C-1.02880483 40.33026757 -1.0439162 34.39342638 -1.05493164 28.45654297 C-1.05996909 26.23909024 -1.06679922 24.02164084 -1.07543945 21.80419922 C-1.08753072 18.62206195 -1.0932341 15.43996849 -1.09765625 12.2578125 C-1.10281754 11.26194122 -1.10797882 10.26606995 -1.11329651 9.24002075 C-1.11337204 8.31921722 -1.11344757 7.3984137 -1.11352539 6.44970703 C-1.115746 5.6369632 -1.11796661 4.82421936 -1.12025452 3.98684692 C-1 2 -1 2 0 0 Z " fill="#F9DD5E" transform="translate(380,224)"/>
<path d="M0 0 C0.66 0.66 1.32 1.32 2 2 C4.06874034 2.6425235 4.06874034 2.6425235 6 3 C5.1875 5.4375 5.1875 5.4375 4 8 C0.70613757 9.09795414 -1.88694503 9.18974892 -5.35546875 9.28125 C-6.61810547 9.31863281 -7.88074219 9.35601562 -9.18164062 9.39453125 C-10.5169149 9.43014728 -11.85220161 9.46530008 -13.1875 9.5 C-23.00378763 9.67312958 -23.00378763 9.67312958 -32.765625 10.59765625 C-36 11 -36 11 -38.5625 9.9375 C-42.12710007 8.56649997 -44.50196092 9.76539797 -48 11 C-48.33 9.68 -48.66 8.36 -49 7 C-47.68 6.34 -46.36 5.68 -45 5 C-45 4.01 -45 3.02 -45 2 C-30.06891146 -0.75348285 -15.11692408 -2.65209194 0 0 Z " fill="#81CCA2" transform="translate(263,113)"/>
<path d="M0 0 C3.31837613 1.85211691 6.57697924 3.72416892 9.76171875 5.80078125 C18.45398004 11.4174871 27.36142322 15.30617417 37 19 C37 19.66 37 20.32 37 21 C37.99 21.33 38.98 21.66 40 22 C40 23.32 40 24.64 40 26 C40.66 26.99 41.32 27.98 42 29 C40.4375 28.77213542 38.875 28.54427083 37.3125 28.31640625 C35.29585965 28.0404808 33.2668961 27.85782429 31.23828125 27.69140625 C26.7270378 27.12528329 23.17474977 25.48769133 19.1875 23.375 C18.49462891 23.01744629 17.80175781 22.65989258 17.08789062 22.29150391 C8.18489168 17.62753713 -0.08620699 12.19044553 -8 6 C-7.01 5.67 -6.02 5.34 -5 5 C-4.67 4.34 -4.34 3.68 -4 3 C-3.01 3.33 -2.02 3.66 -1 4 C-1.33 5.32 -1.66 6.64 -2 8 C-0.35 8 1.3 8 3 8 C3 6.68 3 5.36 3 4 C2.01 3.34 1.02 2.68 0 2 C0 1.34 0 0.68 0 0 Z " fill="#58C6B5" transform="translate(171,352)"/>
<path d="M0 0 C-0.66 0.99 -1.32 1.98 -2 3 C-2.66 3 -3.32 3 -4 3 C-4 3.99 -4 4.98 -4 6 C-1.36 5.34 1.28 4.68 4 4 C4 4.66 4 5.32 4 6 C4.99 5.67 5.98 5.34 7 5 C7.495 5.99 7.495 5.99 8 7 C6.80246094 7.29132813 5.60492188 7.58265625 4.37109375 7.8828125 C-11.64360393 11.87284508 -25.87266822 17.42346884 -40 26 C-40.33 25.34 -40.66 24.68 -41 24 C-40.34 24 -39.68 24 -39 24 C-38.67 21.69 -38.34 19.38 -38 17 C-38.99 17.33 -39.98 17.66 -41 18 C-41.66 17.34 -42.32 16.68 -43 16 C-33.20765229 8.23669731 -12.71664093 -3.16808302 0 0 Z " fill="#51C5B8" transform="translate(219,117)"/>
<path d="M0 0 C14.61008988 4.81392362 28.52394795 14.82554448 39 26 C36.125 25.75 36.125 25.75 33 25 C31.625 22.9375 31.625 22.9375 31 21 C30.34 21.33 29.68 21.66 29 22 C29.33 22.99 29.66 23.98 30 25 C29.34 25.33 28.68 25.66 28 26 C29.32 26 30.64 26 32 26 C32 27.32 32 28.64 32 30 C32.99 30.33 33.98 30.66 35 31 C39 35.45714286 39 35.45714286 39 38 C39.66 38 40.32 38 41 38 C40.67 38.99 40.34 39.98 40 41 C39.42894531 40.39414063 38.85789062 39.78828125 38.26953125 39.1640625 C28.55533606 29.12554601 18.19117449 21.30738492 5.8984375 14.69140625 C3.48060353 13.28046001 1.80848394 12.0970718 0 10 C0.33 9.34 0.66 8.68 1 8 C1.66 8 2.32 8 3 8 C2.65555119 5.52733235 2.65555119 5.52733235 2 3 C1.34 2.67 0.68 2.34 0 2 C0 1.34 0 0.68 0 0 Z " fill="#C8D584" transform="translate(305,123)"/>
<path d="M0 0 C1.98 0.495 1.98 0.495 4 1 C4.33 2.32 4.66 3.64 5 5 C5.969375 4.979375 6.93875 4.95875 7.9375 4.9375 C16.97927384 6.29921293 23.60052602 17.96545061 28.75390625 24.8984375 C31.38187337 28.52731731 33.84860026 32.0681315 36 36 C35.505 36.99 35.505 36.99 35 38 C34.59007812 37.3503125 34.18015625 36.700625 33.7578125 36.03125 C33.21898437 35.1959375 32.68015625 34.360625 32.125 33.5 C31.59132813 32.6646875 31.05765625 31.829375 30.5078125 30.96875 C30.01023437 30.3190625 29.51265625 29.669375 29 29 C28.34 29 27.68 29 27 29 C26.72093074 34.4883621 26.74508209 37.3888663 30 42 C30 42.66 30 43.32 30 44 C30.66 44 31.32 44 32 44 C32.39832031 45.06541016 32.39832031 45.06541016 32.8046875 46.15234375 C33.15789062 47.07144531 33.51109375 47.99054688 33.875 48.9375 C34.22304688 49.85402344 34.57109375 50.77054688 34.9296875 51.71484375 C35.7819086 54.14941056 35.7819086 54.14941056 38 55 C38.4140625 57.28515625 38.4140625 57.28515625 38.625 60.0625 C38.69976562 60.98160156 38.77453125 61.90070313 38.8515625 62.84765625 C38.90054688 63.55792969 38.94953125 64.26820313 39 65 C37.34308018 62.51462027 36.17271643 60.3112989 34.96875 57.60546875 C29.42817755 45.40396249 23.56633787 34.52999838 14.7109375 24.375 C13 22 13 22 13 18 C12.34 18 11.68 18 11 18 C10.8453125 17.0409375 10.8453125 17.0409375 10.6875 16.0625 C10.460625 15.381875 10.23375 14.70125 10 14 C9.01 13.67 8.02 13.34 7 13 C5.3125 11.6875 5.3125 11.6875 4 10 C4 8.68 4 7.36 4 6 C2.02 6.99 2.02 6.99 0 8 C-0.33 7.01 -0.66 6.02 -1 5 C-0.01 5 0.98 5 2 5 C1.34 3.35 0.68 1.7 0 0 Z " fill="#E1DA74" transform="translate(333,143)"/>
<path d="M0 0 C2.15579387 2.66860396 4.27029229 5.35738146 6.33984375 8.09375 C13.41108315 17.41095493 21.18233547 27.45489031 31 34 C31.33 34.99 31.66 35.98 32 37 C32.99 37.66 33.98 38.32 35 39 C34.67 40.32 34.34 41.64 34 43 C31.525 43.495 31.525 43.495 29 44 C29 42.33333333 29 40.66666667 29 39 C28.34 38.67 27.68 38.34 27 38 C26.67 38.99 26.34 39.98 26 41 C19.9081127 38.85496926 16.25348561 35.81251773 11.8125 31.1875 C11.20986328 30.58357422 10.60722656 29.97964844 9.98632812 29.35742188 C6.49794583 25.80011436 3.61665618 22.23989203 1 18 C2.98 17.67 4.96 17.34 7 17 C7 17.66 7 18.32 7 19 C7.99 19 8.98 19 10 19 C8.60865582 14.57299578 6.52115858 12.00586708 3 9 C2.01 9 1.02 9 0 9 C0 6.03 0 3.06 0 0 Z " fill="#3CC2C5" transform="translate(140,317)"/>
<path d="M0 0 C1.31223496 3.93670488 0.24296256 6.12488144 -1 10 C-1.99 10 -2.98 10 -4 10 C-3.01 11.32 -2.02 12.64 -1 14 C-0.67 13.34 -0.34 12.68 0 12 C0.99 12 1.98 12 3 12 C3 11.34 3 10.68 3 10 C3.66 10 4.32 10 5 10 C5 9.01 5 8.02 5 7 C5.66 7 6.32 7 7 7 C3.64788348 16.11005829 -2.9963357 23.3640365 -9.26733398 30.62109375 C-11.33844691 33.01787183 -13.23964183 35.35946275 -15 38 C-18.81884318 38.42431591 -21.12405448 38.5390434 -24.4375 36.5 C-24.953125 36.005 -25.46875 35.51 -26 35 C-24.61430344 31.83368336 -23.03317227 29.89322613 -20.5 27.5625 C-12.25755824 19.51487959 -5.57997671 10.04849465 0 0 Z " fill="#E1DA70" transform="translate(362,312)"/>
<path d="M0 0 C3.0965287 2.89009346 3.83262735 5.81568369 4 10 C2.67140385 14.23490023 1.55127481 15.66075396 -2.25 18 C-6.71190403 19.18984108 -8.80393576 18.85595149 -13 17 C-15.75679762 14.33509563 -16.82217853 11.82316156 -17 8 C-15.7327525 3.4062278 -14.80991573 1.51398498 -10.75 -1.0625 C-6.30348342 -2.17412914 -4.16789335 -1.84349129 0 0 Z " fill="#3DB6F7" transform="translate(338,294)"/>
<path d="M0 0 C0.53625 0.10957031 1.0725 0.21914063 1.625 0.33203125 C7.13857999 1.44744299 12.66021504 2.51747363 18.1875 3.5625 C19.18426758 3.75259644 19.18426758 3.75259644 20.20117188 3.9465332 C24.45714746 4.74690597 28.71050698 5.4158278 33 6 C32.67 6.66 32.34 7.32 32 8 C31.34 8 30.68 8 30 8 C30.495 9.98 30.495 9.98 31 12 C30.01 12 29.02 12 28 12 C28.495 13.485 28.495 13.485 29 15 C17.6586843 15.72008354 6.65443244 12.719 -4 9 C-3.34 8.34 -2.68 7.68 -2 7 C1.125 7.375 1.125 7.375 4 8 C3.01 7.01 2.02 6.02 1 5 C1.33 4.01 1.66 3.02 2 2 C1.34 1.34 0.68 0.68 0 0 Z " fill="#6EC9AA" transform="translate(208,372)"/>
<path d="M0 0 C1.43739513 -0.02712066 2.87493863 -0.04645067 4.3125 -0.0625 C5.51326172 -0.07990234 5.51326172 -0.07990234 6.73828125 -0.09765625 C9 0 9 0 12 1 C12 1.99 12 2.98 12 4 C12.99 4 13.98 4 15 4 C15.12375 4.61875 15.2475 5.2375 15.375 5.875 C15.87197356 8.19120832 15.87197356 8.19120832 18 10 C18 11.32 18 12.64 18 14 C17.236875 13.814375 16.47375 13.62875 15.6875 13.4375 C12.91032625 12.77180827 12.91032625 12.77180827 10 14 C7.6593935 13.72230092 5.32375692 13.39460023 3 13 C2.9175 13.5775 2.835 14.155 2.75 14.75 C1.79468987 17.6159304 0.21530827 18.9990764 -2 21 C-1.34 21 -0.68 21 0 21 C0 22.32 0 23.64 0 25 C-0.66 25 -1.32 25 -2 25 C-2.99 27.475 -2.99 27.475 -4 30 C-4.99 30 -5.98 30 -7 30 C-7.33 30.99 -7.66 31.98 -8 33 C-8.96661363 29.87819599 -8.98988909 27.47916205 -8.5625 24.25 C-8.46066406 23.45078125 -8.35882813 22.6515625 -8.25390625 21.828125 C-8.17011719 21.22484375 -8.08632812 20.6215625 -8 20 C-7.34 20 -6.68 20 -6 20 C-5.9175 19.21625 -5.835 18.4325 -5.75 17.625 C-5 15 -5 15 -2.9375 13.6875 C-2.298125 13.460625 -1.65875 13.23375 -1 13 C-1 13.99 -1 14.98 -1 16 C-0.34 16 0.32 16 1 16 C0.95875 15.0925 0.9175 14.185 0.875 13.25 C0.99531556 10.1217954 1.3914708 8.61385994 3 6 C2.01 6 1.02 6 0 6 C0 4.02 0 2.04 0 0 Z " fill="#37B6FD" transform="translate(235,172)"/>
<path d="M0 0 C15.745 8.71 15.745 8.71 20 15 C19.01 16.485 19.01 16.485 18 18 C17.34 18 16.68 18 16 18 C15.67 18.99 15.34 19.98 15 21 C6.84453099 16.53363362 -0.87040249 12.0356381 -8 6 C-7.01 5.67 -6.02 5.34 -5 5 C-4.67 4.34 -4.34 3.68 -4 3 C-3.01 3.33 -2.02 3.66 -1 4 C-1.33 5.32 -1.66 6.64 -2 8 C-0.35 8 1.3 8 3 8 C3 6.68 3 5.36 3 4 C2.01 3.34 1.02 2.68 0 2 C0 1.34 0 0.68 0 0 Z " fill="#4EC3BB" transform="translate(171,352)"/>
<path d="M0 0 C0.66 2.64 1.32 5.28 2 8 C0.68 8.33 -0.64 8.66 -2 9 C-2.33 9.99 -2.66 10.98 -3 12 C-4.76586914 12.79956055 -4.76586914 12.79956055 -7.03515625 13.38671875 C-7.84404297 13.60263672 -8.65292969 13.81855469 -9.48632812 14.04101562 C-10.33646484 14.25435547 -11.18660156 14.46769531 -12.0625 14.6875 C-13.34350586 15.02491211 -13.34350586 15.02491211 -14.65039062 15.36914062 C-16.76423753 15.92417305 -18.88046244 16.46719069 -21 17 C-21 15.68 -21 14.36 -21 13 C-20.01 13 -19.02 13 -18 13 C-18.020625 12.236875 -18.04125 11.47375 -18.0625 10.6875 C-18 8 -18 8 -17 5 C-14.50638252 3.95485926 -12.13580564 3.09898584 -9.5625 2.3125 C-8.86833984 2.08755859 -8.17417969 1.86261719 -7.45898438 1.63085938 C-2.33838336 0 -2.33838336 0 0 0 Z " fill="#ABD18D" transform="translate(299,369)"/>
<path d="M0 0 C5.56774861 1.64501663 5.56774861 1.64501663 7.87792969 3.54223633 C10.48058366 5.33013864 12.06861098 5.42059916 15.203125 5.51171875 C16.1828125 5.54716797 17.1625 5.58261719 18.171875 5.61914062 C19.18765625 5.64169922 20.2034375 5.66425781 21.25 5.6875 C22.28125 5.72166016 23.3125 5.75582031 24.375 5.79101562 C26.91655812 5.87338093 29.45777626 5.94256834 32 6 C31.67 7.32 31.34 8.64 31 10 C28.3347536 10.50881977 25.66821581 11.00720141 23 11.5 C22.25621094 11.64308594 21.51242187 11.78617187 20.74609375 11.93359375 C15.74779985 12.84632568 11.08079684 13.13856719 6 13 C5.67 12.34 5.34 11.68 5 11 C2.93897765 10.60861322 2.93897765 10.60861322 0.5625 10.5 C-3.7787307 10.2212693 -3.7787307 10.2212693 -6 8 C-2.04 8.33 1.92 8.66 6 9 C5.34 7.35 4.68 5.7 4 4 C3.01 3.67 2.02 3.34 1 3 C0.67 2.01 0.34 1.02 0 0 Z " fill="#5AB8DD" transform="translate(330,344)"/>
<path d="M0 0 C1.41599747 2.83199493 0.75500358 4.70978861 0.25 7.8125 C0.09015625 8.85019531 -0.0696875 9.88789063 -0.234375 10.95703125 C-1.03996455 14.1588387 -2.00086077 16.37491669 -4 19 C-4.99 19 -5.98 19 -7 19 C-7 19.99 -7 20.98 -7 22 C-7.66 22 -8.32 22 -9 22 C-9 22.66 -9 23.32 -9 24 C-9.99 24 -10.98 24 -12 24 C-12.33 24.99 -12.66 25.98 -13 27 C-14.5 25.625 -14.5 25.625 -16 24 C-16 23.34 -16 22.68 -16 22 C-15.01 22 -14.02 22 -13 22 C-12.89042969 21.20335937 -12.78085937 20.40671875 -12.66796875 19.5859375 C-10.96771892 8.22329231 -10.96771892 8.22329231 -8 4 C-5.05079377 2.61755958 -4.16069966 2.94643345 -1 4 C-0.67 2.68 -0.34 1.36 0 0 Z " fill="#EBDB67" transform="translate(374,300)"/>
<path d="M0 0 C6.63848682 -0.3212171 12.84037394 0.29990625 19.375 1.375 C20.15987793 1.50108643 20.94475586 1.62717285 21.75341797 1.75708008 C25.47132119 2.39805651 28.73514852 2.99220363 32 5 C31.525625 5.433125 31.05125 5.86625 30.5625 6.3125 C28.76313043 8.02309613 28.76313043 8.02309613 28 11 C23.90274731 12.04167441 20.38504776 11.94409525 16.1875 11.5625 C14.44533203 11.40974609 14.44533203 11.40974609 12.66796875 11.25390625 C11.78753906 11.17011719 10.90710938 11.08632812 10 11 C10 10.34 10 9.68 10 9 C10.99 8.67 11.98 8.34 13 8 C13.73323796 5.98491642 13.73323796 5.98491642 14 4 C12.68 4 11.36 4 10 4 C9.34 3.34 8.68 2.68 8 2 C5.34462628 1.43479997 2.70855287 1.26211802 0 1 C0 0.67 0 0.34 0 0 Z " fill="#9CCF95" transform="translate(254,112)"/>
<path d="M0 0 C0.928125 0.20625 1.85625 0.4125 2.8125 0.625 C3.1425 2.275 3.4725 3.925 3.8125 5.625 C3.1525 5.625 2.4925 5.625 1.8125 5.625 C1.8125 6.285 1.8125 6.945 1.8125 7.625 C1.1525 7.625 0.4925 7.625 -0.1875 7.625 C-0.24164063 8.19992188 -0.29578125 8.77484375 -0.3515625 9.3671875 C-1.57343213 12.66737744 -3.69880083 13.77322079 -6.5625 15.75 C-7.53960937 16.43320313 -8.51671875 17.11640625 -9.5234375 17.8203125 C-11.40647989 19.09592186 -13.29506057 20.36337371 -15.1875 21.625 C-15.1875 19.975 -15.1875 18.325 -15.1875 16.625 C-14.1975 16.625 -13.2075 16.625 -12.1875 16.625 C-10.85416667 13.625 -10.85416667 13.625 -12.1875 10.625 C-10.8675 9.305 -9.5475 7.985 -8.1875 6.625 C-10.4975 8.275 -12.8075 9.925 -15.1875 11.625 C-15.8475 11.295 -16.5075 10.965 -17.1875 10.625 C-15.41805495 9.16498252 -13.64689429 7.70704407 -11.875 6.25 C-10.88886719 5.43789062 -9.90273437 4.62578125 -8.88671875 3.7890625 C-3.62824074 -0.42685185 -3.62824074 -0.42685185 0 0 Z " fill="#45C4BF" transform="translate(178.1875,133.375)"/>
<path d="M0 0 C-0.99 1.485 -0.99 1.485 -2 3 C-2.66 3 -3.32 3 -4 3 C-4 3.99 -4 4.98 -4 6 C-1.36 5.34 1.28 4.68 4 4 C4 4.66 4 5.32 4 6 C4.99 5.67 5.98 5.34 7 5 C7.495 5.99 7.495 5.99 8 7 C5.00022308 7.79251353 2.00013749 8.58385263 -1 9.375 C-1.83917969 9.59671875 -2.67835938 9.8184375 -3.54296875 10.046875 C-8.68638726 11.40250469 -13.83693608 12.72118556 -19 14 C-19 13.34 -19 12.68 -19 12 C-16.69 11.34 -14.38 10.68 -12 10 C-12.66 9.67 -13.32 9.34 -14 9 C-14 8.34 -14 7.68 -14 7 C-17.48408985 5.83863672 -18.19376386 6.22158869 -21.5 7.5 C-25.66666667 9.11111111 -25.66666667 9.11111111 -29 8 C-7.01650925 -1.78803839 -7.01650925 -1.78803839 0 0 Z " fill="#67C4AD" transform="translate(219,117)"/>
<path d="M0 0 C2.30104014 2.12251117 3.81894459 4.15548556 5.25 6.9375 C5.78367188 7.94103516 5.78367188 7.94103516 6.328125 8.96484375 C7.12634 11.38269269 6.82707306 12.63011757 6 15 C5.67 15 5.34 15 5 15 C5 13.35 5 11.7 5 10 C4.34 10 3.68 10 3 10 C2.71125 9.21625 2.4225 8.4325 2.125 7.625 C1.15087746 4.90328368 1.15087746 4.90328368 -1 3 C-0.67 2.01 -0.34 1.02 0 0 Z M0 7 C0.33 7.99 0.66 8.98 1 10 C1.66 10.33 2.32 10.66 3 11 C2.195625 12.010625 1.39125 13.02125 0.5625 14.0625 C-2.10547019 17.75545309 -2.72410871 20.49377556 -3 25 C-5.24151882 22.75848118 -5.96301325 20.9932888 -7.125 18.0625 C-7.65480469 16.74958984 -7.65480469 16.74958984 -8.1953125 15.41015625 C-9 13 -9 13 -9 10 C-9.66 10 -10.32 10 -11 10 C-11.12375 10.70125 -11.2475 11.4025 -11.375 12.125 C-12.03838345 15.17656387 -12.97211955 18.05340938 -14 21 C-14.33 19.68 -14.66 18.36 -15 17 C-15.66 17 -16.32 17 -17 17 C-16.34 15.68 -15.68 14.36 -15 13 C-14.34 13 -13.68 13 -13 13 C-12.67 11.68 -12.34 10.36 -12 9 C-11.07767578 9.03480469 -11.07767578 9.03480469 -10.13671875 9.0703125 C-8.92435547 9.09738281 -8.92435547 9.09738281 -7.6875 9.125 C-6.48673828 9.15980469 -6.48673828 9.15980469 -5.26171875 9.1953125 C-2.71611424 9.15817322 -2.71611424 9.15817322 0 7 Z " fill="#40B4F7" transform="translate(250,176)"/>
<path d="M0 0 C0.66 0.33 1.32 0.66 2 1 C1.34 2.65 0.68 4.3 0 6 C-0.33 5.34 -0.66 4.68 -1 4 C-2.46469601 7.71056322 -3.1512528 11.05217404 -3.4375 15 C-3.7842611 19.25103418 -4.76233276 22.30298455 -7 26 C-8.20628008 23.66785852 -9.1654738 21.50357861 -10 19 C-11.65 19.33 -13.3 19.66 -15 20 C-14.01 17.03 -13.02 14.06 -12 11 C-11.01 11.33 -10.02 11.66 -9 12 C-9 11.01 -9 10.02 -9 9 C-8.34 9 -7.68 9 -7 9 C-7 7.68 -7 6.36 -7 5 C-6.34 5 -5.68 5 -5 5 C-5 4.01 -5 3.02 -5 2 C-2.625 0.9375 -2.625 0.9375 0 0 Z " fill="#22C0D2" transform="translate(138,176)"/>
<path d="M0 0 C3.48584286 0.03134751 6.09479083 0.60989542 9.25 2.1875 C5.83781732 4.98041177 2.36692159 7.56922774 -1.3125 10 C-2.24191406 10.62519531 -3.17132813 11.25039063 -4.12890625 11.89453125 C-6.75 13.1875 -6.75 13.1875 -9.08984375 12.88671875 C-9.63769531 12.65597656 -10.18554688 12.42523438 -10.75 12.1875 C-10.75 12.8475 -10.75 13.5075 -10.75 14.1875 C-12.07 14.5175 -13.39 14.8475 -14.75 15.1875 C-13.4375 12.6875 -13.4375 12.6875 -11.75 10.1875 C-10.76 10.1875 -9.77 10.1875 -8.75 10.1875 C-9.018125 9.630625 -9.28625 9.07375 -9.5625 8.5 C-9.624375 7.736875 -9.68625 6.97375 -9.75 6.1875 C-7.375 3.5 -7.375 3.5 -4.75 1.1875 C-3.75 0.1875 -3.75 0.1875 0 0 Z " fill="#C7D67B" transform="translate(328.75,354.8125)"/>
<path d="M0 0 C2 3.75 2 3.75 2 6 C1.01 6 0.02 6 -1 6 C-1 6.66 -1 7.32 -1 8 C2.14737182 7.30058404 5.02588876 6.23921302 8 5 C6.45380182 8.4789459 4.73954281 11.33449889 2 14 C-1.90614682 14.55802097 -4.05111671 14.58392818 -7.4375 12.5 C-7.953125 12.005 -8.46875 11.51 -9 11 C-7.59155282 7.78475695 -5.89655214 5.67816132 -3.375 3.25 C-2.74335938 2.63640625 -2.11171875 2.0228125 -1.4609375 1.390625 C-0.73777344 0.70226562 -0.73777344 0.70226562 0 0 Z " fill="#D5D96E" transform="translate(345,336)"/>
<path d="M0 0 C6.93 0.495 6.93 0.495 14 1 C13.67 1.66 13.34 2.32 13 3 C12.34 3 11.68 3 11 3 C11.33 4.32 11.66 5.64 12 7 C11.01 7 10.02 7 9 7 C9.33 7.99 9.66 8.98 10 10 C-0.55808656 10.18451025 -0.55808656 10.18451025 -5 9 C-5 8.67 -5 8.34 -5 8 C-2.69 8 -0.38 8 2 8 C1.34 5.36 0.68 2.72 0 0 Z " fill="#7DC9A6" transform="translate(227,377)"/>
<path d="M0 0 C1.98 0.495 1.98 0.495 4 1 C4.33 2.32 4.66 3.64 5 5 C7.97 5.495 7.97 5.495 11 6 C11 7.32 11 8.64 11 10 C11.66 10 12.32 10 13 10 C13.66 11.65 14.32 13.3 15 15 C13.02 15.99 13.02 15.99 11 17 C10.67 16.01 10.34 15.02 10 14 C9.01 13.67 8.02 13.34 7 13 C5.3125 11.6875 5.3125 11.6875 4 10 C4 8.68 4 7.36 4 6 C2.02 6.99 2.02 6.99 0 8 C-0.33 7.01 -0.66 6.02 -1 5 C-0.01 5 0.98 5 2 5 C1.34 3.35 0.68 1.7 0 0 Z " fill="#D6D86E" transform="translate(333,143)"/>
<path d="M0 0 C0 0.33 0 0.66 0 1 C-1.93166016 1.09087891 -1.93166016 1.09087891 -3.90234375 1.18359375 C-5.58074159 1.26798247 -7.25912636 1.3526313 -8.9375 1.4375 C-10.21270508 1.49647461 -10.21270508 1.49647461 -11.51367188 1.55664062 C-12.32255859 1.59853516 -13.13144531 1.64042969 -13.96484375 1.68359375 C-14.7137085 1.72025146 -15.46257324 1.75690918 -16.23413086 1.79467773 C-18.02461326 1.81771063 -18.02461326 1.81771063 -19 3 C-21.33297433 3.04092937 -23.66705225 3.04241723 -26 3 C-26 3.66 -26 4.32 -26 5 C-24.02 5 -22.04 5 -20 5 C-20 5.33 -20 5.66 -20 6 C-29.41002278 8.29612756 -29.41002278 8.29612756 -34 8 C-33.67 6.68 -33.34 5.36 -33 4 C-30.81426438 3.34822031 -28.6263177 2.70385326 -26.4375 2.0625 C-25.21933594 1.70285156 -24.00117188 1.34320313 -22.74609375 0.97265625 C-15.15773213 -0.99762742 -7.69145393 -1.86459489 0 0 Z " fill="#53ACE0" transform="translate(224,154)"/>
<path d="M0 0 C1.18414294 3.55242882 0.69535532 4.69830562 -0.4375 8.1875 C-0.72496094 9.08855469 -1.01242188 9.98960937 -1.30859375 10.91796875 C-1.53675781 11.60503906 -1.76492187 12.29210937 -2 13 C-2.66 13 -3.32 13 -4 13 C-4.59332061 17.37573952 -5.13827236 21.57528444 -5 26 C-5.99 26.33 -6.98 26.66 -8 27 C-9.23950042 29.09138456 -9.23950042 29.09138456 -10.1875 31.5625 C-10.53167969 32.38878906 -10.87585938 33.21507812 -11.23046875 34.06640625 C-11.48441406 34.70449219 -11.73835937 35.34257812 -12 36 C-12.66 36 -13.32 36 -14 36 C-11.8123979 27.80907465 -8.67042018 20.14804363 -5.3125 12.375 C-4.80138672 11.18003906 -4.29027344 9.98507813 -3.76367188 8.75390625 C-2.5138875 5.8338493 -1.25924806 2.91598523 0 0 Z " fill="#4CB0EA" transform="translate(211,228)"/>
<path d="M0 0 C0.33 0 0.66 0 1 0 C1.04898438 0.62648437 1.09796875 1.25296875 1.1484375 1.8984375 C1.22320312 2.71570313 1.29796875 3.53296875 1.375 4.375 C1.44460937 5.18710938 1.51421875 5.99921875 1.5859375 6.8359375 C1.82892588 9.20334191 1.82892588 9.20334191 4 11 C4 11.99 4 12.98 4 14 C3.35256836 14.60102539 2.70513672 15.20205078 2.03808594 15.82128906 C-0.57111206 18.61051797 -0.53242689 20.08891745 -0.609375 23.859375 C-0.64160156 24.97441406 -0.67382812 26.08945313 -0.70703125 27.23828125 C-0.72121094 28.39714844 -0.73539062 29.55601562 -0.75 30.75 C-0.77964844 31.92433594 -0.80929688 33.09867188 -0.83984375 34.30859375 C-0.91050727 37.20579822 -0.96322266 40.10219955 -1 43 C-1.33 43 -1.66 43 -2 43 C-2.05014413 38.80486535 -2.08606394 34.6098982 -2.10986328 30.41455078 C-2.1198044 28.99297032 -2.13336208 27.57140964 -2.15087891 26.14990234 C-2.25766624 17.24886408 -1.84581683 8.75254292 0 0 Z " fill="#2CB6D0" transform="translate(114,222)"/>
<path d="M0 0 C-0.62759865 2.92879371 -1.58622659 5.36095629 -3 8 C-3.66 8 -4.32 8 -5 8 C-5 6.68 -5 5.36 -5 4 C-7.97 3.505 -7.97 3.505 -11 3 C-11 1.02 -11 -0.96 -11 -3 C-6.06995512 -4.74001584 -3.98367078 -3.05723572 0 0 Z " fill="#C6D67A" transform="translate(330,137)"/>
<path d="M0 0 C1.65 0.33 3.3 0.66 5 1 C5 1.66 5 2.32 5 3 C5.99 3.33 6.98 3.66 8 4 C8 5.32 8 6.64 8 8 C8.99 9.485 8.99 9.485 10 11 C8.36060341 10.76092133 6.72123863 10.52162257 5.08203125 10.28125 C3.66587049 10.08994873 2.24607401 9.92420134 0.82421875 9.78125 C-4.79391548 9.20608452 -4.79391548 9.20608452 -7 7 C-4.69 7 -2.38 7 0 7 C0 4.69 0 2.38 0 0 Z " fill="#65C8B3" transform="translate(203,370)"/>
<path d="M0 0 C0.66 0 1.32 0 2 0 C2 0.66 2 1.32 2 2 C4.97 2.495 4.97 2.495 8 3 C8.6875 5.3125 8.6875 5.3125 9 8 C7.5625 9.8125 7.5625 9.8125 6 11 C5.34 10.67 4.68 10.34 4 10 C4 9.34 4 8.68 4 8 C3.21625 7.9175 2.4325 7.835 1.625 7.75 C-1 7 -1 7 -2.3125 4.9375 C-2.539375 4.298125 -2.76625 3.65875 -3 3 C-2.01 2.67 -1.02 2.34 0 2 C0 1.34 0 0.68 0 0 Z " fill="#35C4CA" transform="translate(154,341)"/>
<path d="M0 0 C6.27 0.33 12.54 0.66 19 1 C19 1.33 19 1.66 19 2 C17.35 2 15.7 2 14 2 C13.67 2.99 13.34 3.98 13 5 C10.87506859 5.02693575 8.75004088 5.04636628 6.625 5.0625 C5.44164062 5.07410156 4.25828125 5.08570313 3.0390625 5.09765625 C0 5 0 5 -2 4 C-2 3.34 -2 2.68 -2 2 C-1.34 2 -0.68 2 0 2 C0 1.34 0 0.68 0 0 Z " fill="#3CB6FA" transform="translate(339,351)"/>
<path d="M0 0 C0.66 0.33 1.32 0.66 2 1 C2 1.66 2 2.32 2 3 C3.32 3.66 4.64 4.32 6 5 C5.67 6.65 5.34 8.3 5 10 C4.34 10 3.68 10 3 10 C3.33 11.32 3.66 12.64 4 14 C2.68 13.34 1.36 12.68 0 12 C0 10.35 0 8.7 0 7 C-1.32 6.34 -2.64 5.68 -4 5 C-2.25 1.125 -2.25 1.125 0 0 Z " fill="#18C1DC" transform="translate(123,291)"/>
<path d="M0 0 C0.33 0.66 0.66 1.32 1 2 C2.32 2 3.64 2 5 2 C5 2.99 5 3.98 5 5 C2 7 2 7 -2 7 C-2 7.99 -2 8.98 -2 10 C-2.99 9.67 -3.98 9.34 -5 9 C-4.34 9 -3.68 9 -3 9 C-3 8.34 -3 7.68 -3 7 C-4.32 6.67 -5.64 6.34 -7 6 C-6.67 5.67 -6.34 5.34 -6 5 C-6.99 4.34 -7.98 3.68 -9 3 C-6.03 2.01 -3.06 1.02 0 0 Z " fill="#5BC9B4" transform="translate(202,122)"/>
<path d="M0 0 C0.33 0 0.66 0 1 0 C1.22080089 6.096558 0.9510183 11.1469451 -1 17 C-1.2165625 18.3303125 -1.2165625 18.3303125 -1.4375 19.6875 C-2.09877461 22.40607338 -3.32090814 23.78359875 -5 26 C-5.72351427 27.98014432 -6.40265389 29.97821315 -7 32 C-7.66 32 -8.32 32 -9 32 C-8.608125 30.88625 -8.21625 29.7725 -7.8125 28.625 C-6.17181865 23.7108061 -4.76394614 18.73975006 -3.375 13.75 C-3.04786011 12.57945068 -3.04786011 12.57945068 -2.71411133 11.38525391 C-1.67168794 7.60854547 -0.6947632 3.85979556 0 0 Z " fill="#EDDC7E" transform="translate(376,272)"/>
<path d="M0 0 C0.66 0 1.32 0 2 0 C6 6.75 6 6.75 6 9 C6.66 9 7.32 9 8 9 C8.26554687 9.71027344 8.53109375 10.42054688 8.8046875 11.15234375 C9.15789062 12.07144531 9.51109375 12.99054688 9.875 13.9375 C10.39707031 15.31228516 10.39707031 15.31228516 10.9296875 16.71484375 C11.7819086 19.14941056 11.7819086 19.14941056 14 20 C14.4140625 22.28515625 14.4140625 22.28515625 14.625 25.0625 C14.69976562 25.98160156 14.77453125 26.90070313 14.8515625 27.84765625 C14.90054687 28.55792969 14.94953125 29.26820313 15 30 C13.30269866 27.45404799 12.02127941 25.0786541 10.72265625 22.32421875 C10.29146484 21.41349609 9.86027344 20.50277344 9.41601562 19.56445312 C8.96935547 18.61505859 8.52269531 17.66566406 8.0625 16.6875 C4.11048792 8.30514008 4.11048792 8.30514008 0 0 Z " fill="#E9DB81" transform="translate(357,178)"/>
<path d="M0 0 C0 3.69418201 -1.28179295 5.77836178 -3 9 C-0.36 9 2.28 9 5 9 C4.67 9.99 4.34 10.98 4 12 C-2.4 12.36923077 -2.4 12.36923077 -5.4375 10.5 C-5.953125 10.005 -6.46875 9.51 -7 9 C-5.44499019 5.18315774 -2.96404505 2.80804268 0 0 Z " fill="#BFD591" transform="translate(343,338)"/>
<path d="M0 0 C0.99 0.33 1.98 0.66 3 1 C3 2.65 3 4.3 3 6 C3.99 6 4.98 6 6 6 C6 5.34 6 4.68 6 4 C7.65 4 9.3 4 11 4 C10.37240135 6.92879371 9.41377341 9.36095629 8 12 C6.140625 11.77734375 6.140625 11.77734375 4 11 C2.734375 9.00390625 2.734375 9.00390625 1.75 6.5625 C1.41484375 5.75941406 1.0796875 4.95632813 0.734375 4.12890625 C0 2 0 2 0 0 Z " fill="#26BFD0" transform="translate(120,297)"/>
<path d="M0 0 C1.31223496 3.93670488 0.24296256 6.12488144 -1 10 C-1.99 10 -2.98 10 -4 10 C-4 10.66 -4 11.32 -4 12 C-4.99 12.495 -4.99 12.495 -6 13 C-7.0064275 14.66279327 -8.00585407 16.32983484 -9 18 C-10.6875 19.8125 -10.6875 19.8125 -12 21 C-12.66 20.67 -13.32 20.34 -14 20 C-13.49210937 19.39414062 -12.98421875 18.78828125 -12.4609375 18.1640625 C-7.71675735 12.38931138 -3.65937194 6.51479096 0 0 Z " fill="#E1D884" transform="translate(362,312)"/>
<path d="M0 0 C0.99 0 1.98 0 3 0 C2.31583566 4.17576168 0.98634991 7.88080407 -0.5625 11.8125 C-1.01753906 12.97394531 -1.47257813 14.13539063 -1.94140625 15.33203125 C-2.29074219 16.21246094 -2.64007813 17.09289062 -3 18 C-3.33 17.01 -3.66 16.02 -4 15 C-4.99 15 -5.98 15 -7 15 C-7 14.34 -7 13.68 -7 13 C-5.68 12.67 -4.36 12.34 -3 12 C-2.855625 10.9275 -2.71125 9.855 -2.5625 8.75 C-1.47058824 1.47058824 -1.47058824 1.47058824 0 0 Z " fill="#47B3EC" transform="translate(220,227)"/>
<path d="M0 0 C1.0546875 1.859375 1.0546875 1.859375 2 4 C1.125 6.25 1.125 6.25 0 8 C-0.66 8 -1.32 8 -2 8 C-1.938125 8.70511719 -1.87625 9.41023437 -1.8125 10.13671875 C-2.045223 13.69059289 -3.22470396 15.74271726 -5 18.8125 C-5.556875 19.78832031 -6.11375 20.76414063 -6.6875 21.76953125 C-7.120625 22.50558594 -7.55375 23.24164063 -8 24 C-9 22 -9 22 -8.28735352 19.75341797 C-7.90506592 18.84221191 -7.52277832 17.93100586 -7.12890625 16.9921875 C-6.51499023 15.51298828 -6.51499023 15.51298828 -5.88867188 14.00390625 C-5.45103516 12.97136719 -5.01339844 11.93882812 -4.5625 10.875 C-3.9118457 9.31458984 -3.9118457 9.31458984 -3.24804688 7.72265625 C-2.17224578 5.14546243 -1.08930622 2.57150805 0 0 Z " fill="#4DAFE6" transform="translate(221,204)"/>
<path d="M0 0 C-1.75 1.5625 -1.75 1.5625 -4 3 C-6.25 2.6875 -6.25 2.6875 -8 2 C-8 2.99 -8 3.98 -8 5 C-8.66 5 -9.32 5 -10 5 C-10 4.34 -10 3.68 -10 3 C-11.98 3 -13.96 3 -16 3 C-16.33 3.66 -16.66 4.32 -17 5 C-17 3.68 -17 2.36 -17 1 C-14.91835982 0.63601378 -12.83459438 0.28416713 -10.75 -0.0625 C-9.00976562 -0.35833984 -9.00976562 -0.35833984 -7.234375 -0.66015625 C-4.37477376 -0.9606216 -2.66674071 -0.9439206 0 0 Z " fill="#A4CE9D" transform="translate(283,376)"/>
<path d="M0 0 C-0.33 1.32 -0.66 2.64 -1 4 C-3.64 4.33 -6.28 4.66 -9 5 C-9 4.34 -9 3.68 -9 3 C-12.63 2.67 -16.26 2.34 -20 2 C-20 1.67 -20 1.34 -20 1 C-17.79187393 0.83060951 -15.58348776 0.66460778 -13.375 0.5 C-12.14523437 0.4071875 -10.91546875 0.314375 -9.6484375 0.21875 C-6.41962143 0.02515931 -3.23321325 -0.03979339 0 0 Z " fill="#4EB3E8" transform="translate(362,350)"/>
<path d="M0 0 C1.32 0.33 2.64 0.66 4 1 C2.68 3.64 1.36 6.28 0 9 C0.66 9 1.32 9 2 9 C1.67 9.66 1.34 10.32 1 11 C0.34 10.67 -0.32 10.34 -1 10 C-1 9.01 -1 8.02 -1 7 C-1.66 7 -2.32 7 -3 7 C-3.1875 4.625 -3.1875 4.625 -3 2 C-2.01 1.34 -1.02 0.68 0 0 Z " fill="#20C1D8" transform="translate(132,309)"/>
<path d="M0 0 C6 7.5 6 7.5 12 15 C11.67 15.66 11.34 16.32 11 17 C10.43732422 16.25943359 10.43732422 16.25943359 9.86328125 15.50390625 C6.6715022 11.37086245 6.6715022 11.37086245 2.125 9.0625 C1.073125 9.0315625 1.073125 9.0315625 0 9 C0 6.03 0 3.06 0 0 Z " fill="#42B8BE" transform="translate(140,317)"/>
<path d="M0 0 C0.12375 0.639375 0.2475 1.27875 0.375 1.9375 C0.684375 2.9584375 0.684375 2.9584375 1 4 C1.66 4.33 2.32 4.66 3 5 C3.625 7.0625 3.625 7.0625 4 9 C2.68 8.67 1.36 8.34 0 8 C-1.32 9.98 -2.64 11.96 -4 14 C-4.33 13.34 -4.66 12.68 -5 12 C-4.26821134 9.92803369 -3.44100997 7.8891448 -2.5625 5.875 C-2.08941406 4.77929688 -1.61632812 3.68359375 -1.12890625 2.5546875 C-0.75636719 1.71164062 -0.38382813 0.86859375 0 0 Z " fill="#49B1ED" transform="translate(196,264)"/>
<path d="M0 0 C1.65 0.33 3.3 0.66 5 1 C5 2.65 5 4.3 5 6 C4.34 5.34 3.68 4.68 3 4 C3 3.01 3 2.02 3 1 C2.34 1 1.68 1 1 1 C0.87625 1.70125 0.7525 2.4025 0.625 3.125 C-0.03838345 6.17656387 -0.97211955 9.05340938 -2 12 C-2.33 10.68 -2.66 9.36 -3 8 C-3.66 8 -4.32 8 -5 8 C-4.34 6.68 -3.68 5.36 -3 4 C-2.34 4 -1.68 4 -1 4 C-0.67 2.68 -0.34 1.36 0 0 Z " fill="#51ACEE" transform="translate(238,185)"/>
<path d="M0 0 C0.33 0.66 0.66 1.32 1 2 C1.99 1.67 2.98 1.34 4 1 C4.33 1.66 4.66 2.32 5 3 C2.39816412 3.69761537 -0.20583602 4.38337774 -2.8125 5.0625 C-3.55048828 5.26166016 -4.28847656 5.46082031 -5.04882812 5.66601562 C-10.66015625 7.11328125 -10.66015625 7.11328125 -14 6 C-13.34 6 -12.68 6 -12 6 C-12 5.34 -12 4.68 -12 4 C-11.21753906 3.79503906 -10.43507812 3.59007813 -9.62890625 3.37890625 C-8.61699219 3.10949219 -7.60507813 2.84007813 -6.5625 2.5625 C-5.55316406 2.29566406 -4.54382813 2.02882813 -3.50390625 1.75390625 C-1.08247999 1.24021923 -1.08247999 1.24021923 0 0 Z " fill="#73C0AB" transform="translate(222,121)"/>
<path d="M0 0 C0.25 2.25 0.25 2.25 0 5 C-1.9375 7.1875 -1.9375 7.1875 -4 9 C-4.33 9.66 -4.66 10.32 -5 11 C-5.66 11 -6.32 11 -7 11 C-7.3125 8.3125 -7.3125 8.3125 -7 5 C-2.86956522 0 -2.86956522 0 0 0 Z " fill="#34B9FB" transform="translate(282,272)"/>
<path d="M0 0 C0.33 0 0.66 0 1 0 C1 2.31 1 4.62 1 7 C0.34 7 -0.32 7 -1 7 C-0.95875 7.845625 -0.9175 8.69125 -0.875 9.5625 C-1.01535028 13.42213269 -1.82780164 16.33688013 -3 20 C-3.66 20 -4.32 20 -5 20 C-4.45484328 12.91296261 -2.39081395 6.67203894 0 0 Z " fill="#3DB6CA" transform="translate(120,201)"/>
<path d="M0 0 C4.29 0.33 8.58 0.66 13 1 C13 1.33 13 1.66 13 2 C3.58997722 4.29612756 3.58997722 4.29612756 -1 4 C-0.67 2.68 -0.34 1.36 0 0 Z " fill="#4FB4E6" transform="translate(191,158)"/>
<path d="M0 0 C1.305239 3.91571701 0.32239848 5.03892997 -1.4375 8.6875 C-1.91058594 9.68136719 -2.38367188 10.67523438 -2.87109375 11.69921875 C-3.42990234 12.83810547 -3.42990234 12.83810547 -4 14 C-4.33 14 -4.66 14 -5 14 C-4.67 10.7 -4.34 7.4 -4 4 C-3.01 3.67 -2.02 3.34 -1 3 C-0.67 2.01 -0.34 1.02 0 0 Z " fill="#F1E07A" transform="translate(378,298)"/>
<path d="M0 0 C0.66 0.33 1.32 0.66 2 1 C2 1.66 2 2.32 2 3 C2.99 3.33 3.98 3.66 5 4 C5 5.32 5 6.64 5 8 C3.68 8 2.36 8 1 8 C0.67 7.34 0.34 6.68 0 6 C-0.66 5.67 -1.32 5.34 -2 5 C-4 4 -4 4 -5 2 C-3.35 2 -1.7 2 0 2 C0 1.34 0 0.68 0 0 Z " fill="#B2D381" transform="translate(303,122)"/>
<path d="M0 0 C0.66 0 1.32 0 2 0 C3.03004293 2.78858 4.04930997 5.58030288 5.0625 8.375 C5.35705078 9.1690625 5.65160156 9.963125 5.95507812 10.78125 C6.22900391 11.54179687 6.50292969 12.30234375 6.78515625 13.0859375 C7.17006226 14.1385376 7.17006226 14.1385376 7.56274414 15.21240234 C8 17 8 17 7 19 C3.03595281 13.33707545 1.6219961 6.62570106 0 0 Z " fill="#50ADE1" transform="translate(261,203)"/>
<path d="M0 0 C0.33 0 0.66 0 1 0 C1.05422947 1.4370809 1.09289723 2.87475462 1.125 4.3125 C1.14820313 5.11300781 1.17140625 5.91351563 1.1953125 6.73828125 C1 9 1 9 -1 12 C-1.99 12 -2.98 12 -4 12 C-2.66666667 8 -1.33333333 4 0 0 Z " fill="#4AB1EC" transform="translate(226,192)"/>
<path d="M0 0 C0.66 0 1.32 0 2 0 C-1.07517084 10.55808656 -1.07517084 10.55808656 -3 15 C-3.33 15 -3.66 15 -4 15 C-4.50610724 8.92671312 -3.04157942 5.22771463 0 0 Z " fill="#4EAFE9" transform="translate(233,197)"/>
<path d="M0 0 C0.66 0.99 1.32 1.98 2 3 C-0.86536704 7.07763771 -3.43041625 9.02677065 -8 11 C-6.63629701 8.00779732 -5.05091917 5.70973471 -2.875 3.25 C-2.33617187 2.63640625 -1.79734375 2.0228125 -1.2421875 1.390625 C-0.62730469 0.70226562 -0.62730469 0.70226562 0 0 Z " fill="#41B9C1" transform="translate(149,155)"/>
<path d="M0 0 C0.33 0 0.66 0 1 0 C2 3 3 6 4 9 C3.67 9.66 3.34 10.32 3 11 C3.66 11 4.32 11 5 11 C5 13.31 5 15.62 5 18 C2.99593518 14.99390278 1.96923742 12.40757305 0.8125 9 C0.44769531 7.948125 0.08289063 6.89625 -0.29296875 5.8125 C-1 3 -1 3 0 0 Z " fill="#52B1E7" transform="translate(248,201)"/>
<path d="M0 0 C2.30104014 2.12251117 3.81894459 4.15548556 5.25 6.9375 C5.78367188 7.94103516 5.78367188 7.94103516 6.328125 8.96484375 C7.12634 11.38269269 6.82707306 12.63011757 6 15 C5.67 15 5.34 15 5 15 C5 13.35 5 11.7 5 10 C4.34 10 3.68 10 3 10 C2.71125 9.21625 2.4225 8.4325 2.125 7.625 C1.15087746 4.90328368 1.15087746 4.90328368 -1 3 C-0.67 2.01 -0.34 1.02 0 0 Z " fill="#4CACE7" transform="translate(250,176)"/>
<path d="M0 0 C2.31 0.66 4.62 1.32 7 2 C2.375 6 2.375 6 -1 6 C-0.67 5.34 -0.34 4.68 0 4 C-0.99 3.67 -1.98 3.34 -3 3 C-2.01 2.67 -1.02 2.34 0 2 C0 1.34 0 0.68 0 0 Z " fill="#C2D785" transform="translate(331,355)"/>
<path d="M0 0 C1.32 0.66 2.64 1.32 4 2 C3.67 3.32 3.34 4.64 3 6 C1.35 6.33 -0.3 6.66 -2 7 C-2 3.89448334 -1.4606285 2.64738916 0 0 Z " fill="#3CC7C0" transform="translate(171,354)"/>
<path d="M0 0 C0.79921875 0.01804687 1.5984375 0.03609375 2.421875 0.0546875 C3.02515625 0.07789063 3.6284375 0.10109375 4.25 0.125 C4.25 0.455 4.25 0.785 4.25 1.125 C2.6 1.125 0.95 1.125 -0.75 1.125 C-1.08 2.115 -1.41 3.105 -1.75 4.125 C-4.72 4.125 -7.69 4.125 -10.75 4.125 C-7.39832785 0.77332785 -4.70736727 -0.13845198 0 0 Z " fill="#43B6F0" transform="translate(353.75,351.875)"/>
<path d="M0 0 C3.88056075 1.46248114 5.04133478 3.31854481 6.8125 7 C7.25207031 7.886875 7.69164062 8.77375 8.14453125 9.6875 C8.56798828 10.8321875 8.56798828 10.8321875 9 12 C8.67 12.66 8.34 13.32 8 14 C6.84669053 12.42210402 5.70262073 10.8374518 4.5625 9.25 C3.92441406 8.36828125 3.28632813 7.4865625 2.62890625 6.578125 C1.1724919 4.27300875 0.44068179 2.65650428 0 0 Z " fill="#50B0E7" transform="translate(288,314)"/>
<path d="M0 0 C0.33 0.99 0.66 1.98 1 3 C1.99 3 2.98 3 4 3 C4 2.34 4 1.68 4 1 C4.99 1.33 5.98 1.66 7 2 C6.01 2.495 6.01 2.495 5 3 C5.66 4.98 6.32 6.96 7 9 C3.34683329 7.75023244 2.21934164 7.32901247 0 4 C0 2.68 0 1.36 0 0 Z " fill="#4CB2F0" transform="translate(322,303)"/>
<path d="M0 0 C0.66 0.66 1.32 1.32 2 2 C0.69013727 3.16962686 -0.6229626 4.33562944 -1.9375 5.5 C-2.66839844 6.1496875 -3.39929688 6.799375 -4.15234375 7.46875 C-6 9 -6 9 -7 9 C-7 7.35 -7 5.7 -7 4 C-6.01 4 -5.02 4 -4 4 C-4 3.34 -4 2.68 -4 2 C-2.68 2 -1.36 2 0 2 C0 1.34 0 0.68 0 0 Z " fill="#4ABBBC" transform="translate(170,146)"/>
<path d="M0 0 C0.99 0 1.98 0 3 0 C2.67 2.31 2.34 4.62 2 7 C1.01 7.33 0.02 7.66 -1 8 C-1.33 6.35 -1.66 4.7 -2 3 C-1.34 3 -0.68 3 0 3 C0 2.01 0 1.02 0 0 Z " fill="#28B9D0" transform="translate(124,211)"/>
<path d="M0 0 C2.375 0.25 2.375 0.25 5 1 C6.125 3 6.125 3 7 5 C7.99 5.33 8.98 5.66 10 6 C9.67 6.99 9.34 7.98 9 9 C7.49704815 7.69088122 5.99770689 6.37761608 4.5 5.0625 C3.6646875 4.33160156 2.829375 3.60070312 1.96875 2.84765625 C1.3190625 2.23792969 0.669375 1.62820313 0 1 C0 0.67 0 0.34 0 0 Z " fill="#4FBAB8" transform="translate(153,348)"/>
<path d="M0 0 C1.10844919 3.32534757 0.84454356 5.62182575 0 9 C-2.55192629 7.72403685 -2.99500868 6.62843884 -4 4 C-3.67 3.01 -3.34 2.02 -3 1 C-2.01 0.67 -1.02 0.34 0 0 Z " fill="#34B8C6" transform="translate(129,307)"/>
<path d="M0 0 C1.32 0.33 2.64 0.66 4 1 C4 1.66 4 2.32 4 3 C4.66 3 5.32 3 6 3 C5.67 4.65 5.34 6.3 5 8 C2.20127563 5.47211993 0.54226981 3.79588866 0 0 Z " fill="#37BDC9" transform="translate(132,321)"/>
<path d="M0 0 C0.86625 0.37125 0.86625 0.37125 1.75 0.75 C1.110625 0.853125 0.47125 0.95625 -0.1875 1.0625 C-1.2084375 1.4028125 -1.2084375 1.4028125 -2.25 1.75 C-2.58 2.74 -2.91 3.73 -3.25 4.75 C-5.3125 6.4375 -5.3125 6.4375 -7.25 7.75 C-6.66524269 3.65669884 -4.62230386 -0.51358932 0 0 Z " fill="#53B0E5" transform="translate(329.25,293.25)"/>
<path d="M0 0 C0.66 0.99 1.32 1.98 2 3 C1.34 3 0.68 3 0 3 C-0.33 4.32 -0.66 5.64 -1 7 C-2.32 5.02 -3.64 3.04 -5 1 C-3.35 0.67 -1.7 0.34 0 0 Z " fill="#41BCC5" transform="translate(146,334)"/>
<path d="M0 0 C1.31611677 0.95336021 2.62778961 1.91285774 3.9375 2.875 C4.66839844 3.40867187 5.39929688 3.94234375 6.15234375 4.4921875 C8 6 8 6 9 8 C8.236875 7.690625 7.47375 7.38125 6.6875 7.0625 C4.81210323 6.32106407 2.91315348 5.63771783 1 5 C0.67 3.35 0.34 1.7 0 0 Z " fill="#4DB9B8" transform="translate(162,344)"/>
<path d="M0 0 C4.875 4.75 4.875 4.75 6 7 C3.69 6.34 1.38 5.68 -1 5 C-0.67 3.35 -0.34 1.7 0 0 Z " fill="#4CAFEA" transform="translate(315,329)"/>
<path d="M0 0 C1.65 0 3.3 0 5 0 C3.35 1.98 1.7 3.96 0 6 C-1.125 2.25 -1.125 2.25 0 0 Z " fill="#45BEC1" transform="translate(158,155)"/>
<path d="M0 0 C0 3 0 3 -1.375 4.6875 C-3 6 -3 6 -5 6 C-4.75 4.125 -4.75 4.125 -4 2 C-1.9375 0.75 -1.9375 0.75 0 0 Z " fill="#D3D47E" transform="translate(352,341)"/>
<path d="M0 0 C0.33 0 0.66 0 1 0 C1.33 1.98 1.66 3.96 2 6 C-1.75 7.125 -1.75 7.125 -4 6 C-2.69593116 3.98079663 -1.36176581 1.98075027 0 0 Z " fill="#4AB0E7" transform="translate(182,297)"/>
<path d="M0 0 C0.66 0 1.32 0 2 0 C2.33 3.3 2.66 6.6 3 10 C0.70366176 6.55549263 0.45983515 4.06187717 0 0 Z " fill="#3CB5C6" transform="translate(117,286)"/>
<path d="M0 0 C0.99 0 1.98 0 3 0 C2.34 2.97 1.68 5.94 1 9 C0.67 9 0.34 9 0 9 C0 6.03 0 3.06 0 0 Z " fill="#36B3C9" transform="translate(127,202)"/>
<path d="M0 0 C1.14926266 0.95421808 2.29430541 1.91352045 3.4375 2.875 C4.07558594 3.40867188 4.71367187 3.94234375 5.37109375 4.4921875 C7 6 7 6 8 8 C5.33333333 6.66666667 2.66666667 5.33333333 0 4 C0 2.68 0 1.36 0 0 Z " fill="#DAD789" transform="translate(344,149)"/>
<path d="M0 0 C2.97 0.33 5.94 0.66 9 1 C6 3 6 3 3 3 C2.34 3.66 1.68 4.32 1 5 C0.67 3.35 0.34 1.7 0 0 Z " fill="#6BCFAC" transform="translate(223,114)"/>
<path d="M0 0 C0.99 0 1.98 0 3 0 C3.66 2.97 4.32 5.94 5 9 C2.67527795 6.14693203 1.2491742 3.45925163 0 0 Z " fill="#EEE290" transform="translate(363,189)"/>
<path d="M0 0 C2.64 0 5.28 0 8 0 C8.33 0.99 8.66 1.98 9 3 C6.03 2.67 3.06 2.34 0 2 C0 1.34 0 0.68 0 0 Z " fill="#ABD4AA" transform="translate(264,121)"/>
</svg>
